<svg version="1.1" id="Layer_1" xmlns="http://www.w3.org/2000/svg" xmlns:xlink="http://www.w3.org/1999/xlink" x="0px" y="0px"
	 width="100%" viewBox="0 0 5000 5000" enable-background="new 0 0 5000 5000" xml:space="preserve">
<path fill="#000000" opacity="1.000000" stroke="none" 
	d="
M2904.000000,5004.000000 
	C1936.000000,5004.000000 970.000000,5004.000000 4.000000,5004.000000 
	C4.000000,3337.333252 4.000000,1670.666626 4.000000,4.000001 
	C1670.666626,4.000000 3337.333252,4.000000 5004.000000,4.000000 
	C5004.000000,1670.666626 5004.000000,3337.333252 5004.000000,5004.000000 
	C4304.666504,5004.000000 3605.333252,5004.000000 2904.000000,5004.000000 
M4415.914551,3516.210693 
	C4451.047363,3448.160400 4483.797363,3379.063232 4511.609375,3307.605469 
	C4538.168945,3239.365234 4561.581055,3170.142334 4581.043945,3099.584717 
	C4588.637207,3072.054932 4595.596191,3044.337402 4602.224121,3016.557617 
	C4608.524902,2990.147705 4614.822754,2963.691406 4619.670898,2936.992188 
	C4626.543457,2899.152344 4632.395020,2861.117432 4638.099609,2823.078369 
	C4642.714844,2792.303223 4648.304199,2761.502441 4650.054688,2730.520264 
	C4651.590820,2703.331543 4656.793457,2676.385742 4655.555176,2649.016846 
	C4655.348145,2644.445068 4656.547852,2639.804443 4657.146973,2635.202393 
	C4657.743652,2630.620361 4658.895020,2626.052734 4658.954102,2621.468018 
	C4659.372070,2588.838623 4661.013184,2556.138428 4659.478516,2523.592041 
	C4657.539062,2482.442627 4660.945801,2441.231445 4656.003906,2400.063721 
	C4653.889648,2382.446777 4653.712402,2364.365234 4652.141602,2346.529785 
	C4649.815430,2320.112549 4648.204102,2293.597900 4644.788574,2267.319824 
	C4640.347168,2233.148682 4634.382812,2199.176758 4629.169434,2165.104736 
	C4620.942871,2111.331787 4609.433105,2058.249023 4596.357910,2005.464111 
	C4584.850098,1959.006470 4571.653809,1913.051758 4557.156738,1867.451294 
	C4529.705078,1781.102783 4497.151855,1696.751099 4457.791992,1615.114014 
	C4443.050781,1584.537598 4427.244629,1554.474609 4412.175293,1520.411743 
	C4411.941406,1510.421387 4411.507324,1500.431030 4411.503906,1490.440552 
	C4411.452637,1327.160767 4411.456543,1163.880981 4411.438477,1000.601196 
	C4411.437500,994.603943 4411.597168,988.590942 4411.231934,982.612732 
	C4410.512207,970.830383 4408.193359,968.456604 4397.008301,967.844177 
	C4391.691895,967.552979 4386.348145,967.732849 4381.017090,967.731995 
	C4261.056641,967.712769 4141.096191,967.678711 4021.135498,967.716248 
	C4010.444580,967.719604 3999.814209,967.744629 3987.556641,961.738220 
	C3949.712158,928.121765 3912.809570,893.366272 3873.826416,861.126587 
	C3793.142578,794.399719 3707.785156,734.024048 3617.909912,680.236938 
	C3516.611328,619.613098 3411.277588,567.106628 3301.396729,523.712341 
	C3205.398682,485.800690 3107.357666,454.719849 3006.858643,431.091217 
	C2959.702148,420.004150 2912.320557,410.307739 2864.682617,401.644501 
	C2816.420654,392.867706 2767.608398,388.125763 2719.059814,381.509857 
	C2694.208984,378.123383 2668.885010,378.219727 2643.777832,376.692108 
	C2640.463379,376.490448 2637.175049,375.866882 2633.860840,375.652252 
	C2611.346191,374.194336 2588.797363,371.249786 2566.317383,371.696472 
	C2519.711426,372.622467 2473.125000,370.296570 2426.467773,373.160553 
	C2391.443604,375.310455 2356.474365,378.350891 2321.424805,380.084808 
	C2313.476562,380.477997 2305.461670,380.353027 2297.592285,381.362305 
	C2270.013916,384.899384 2242.523926,389.135986 2214.931152,392.547913 
	C2141.066895,401.681335 2068.181885,416.237915 1996.025879,434.011505 
	C1915.938965,453.738647 1837.073975,477.797668 1759.724121,506.672211 
	C1700.424927,528.808655 1641.894897,552.815369 1584.984863,580.461792 
	C1543.680176,600.527222 1503.099487,622.141785 1462.698486,643.994690 
	C1405.246704,675.070312 1349.911499,709.681946 1296.008667,746.577454 
	C1245.421997,781.203186 1196.035645,817.464722 1148.982544,856.763184 
	C1115.761353,884.509338 1082.743652,912.558105 1050.729370,941.674866 
	C1011.298523,977.536926 973.128174,1014.783020 937.553772,1054.552734 
	C907.804260,1087.810547 877.399109,1120.541626 848.922852,1154.865356 
	C797.434204,1216.927002 749.765076,1281.909180 705.841064,1349.583252 
	C651.012329,1434.058228 602.060974,1521.781006 559.529968,1613.105713 
	C524.926208,1687.408569 494.471252,1763.314819 468.293884,1840.996094 
	C452.577759,1887.633789 438.955658,1934.828979 426.430481,1982.403442 
	C412.896362,2033.810547 401.072723,2085.555420 392.083282,2137.949707 
	C388.273804,2160.153076 383.858765,2182.261230 380.494110,2204.529541 
	C377.022400,2227.506104 374.255798,2250.598145 371.624786,2273.690186 
	C369.448151,2292.794189 367.839905,2311.965088 366.119965,2331.118896 
	C363.449585,2360.857178 359.734558,2390.564453 358.658783,2420.364258 
	C357.772400,2444.918213 357.779907,2469.534668 357.207916,2494.128906 
	C356.172333,2538.654297 357.569214,2583.245605 358.419586,2627.800781 
	C358.723907,2643.745850 360.101898,2659.689941 361.505432,2675.589355 
	C362.962097,2692.090820 365.167297,2708.524414 366.819000,2725.010498 
	C368.801056,2744.793701 370.036316,2764.664795 372.519928,2784.381104 
	C375.589691,2808.750732 379.415466,2833.031250 383.270752,2857.293701 
	C387.847565,2886.096680 391.753815,2915.063965 397.843536,2943.555176 
	C406.725464,2985.110352 416.867371,3026.412109 427.238373,3067.629150 
	C446.244904,3143.166992 470.523041,3217.070557 498.285492,3289.811523 
	C543.275208,3407.690430 597.495483,3521.096680 662.957153,3631.386719 
	C659.667114,3641.504639 656.538574,3651.678467 653.060608,3661.731445 
	C630.668823,3726.453613 608.194214,3791.147461 585.781799,3855.862793 
	C584.914368,3858.367676 584.540344,3861.041016 583.709412,3863.561279 
	C573.296753,3895.137939 563.076233,3926.780518 552.333374,3958.244873 
	C541.377319,3990.333252 529.914307,4022.248535 518.630859,4054.224854 
	C516.659607,4059.811523 514.381897,4065.309814 515.754089,4071.781250 
	C523.621521,4077.322266 532.520020,4075.330322 540.897766,4075.339355 
	C656.050537,4075.463867 771.203491,4075.415039 886.356445,4075.417480 
	C932.218872,4075.418457 978.095215,4075.033447 1026.045166,4081.518066 
	C1035.731812,4090.664795 1045.386841,4099.845215 1055.110474,4108.952637 
	C1113.031128,4163.200684 1174.720337,4212.880371 1238.567993,4259.918457 
	C1304.602417,4308.567871 1373.536011,4352.749512 1444.854614,4393.235840 
	C1523.677124,4437.981445 1604.871948,4477.825195 1688.718750,4512.316895 
	C1763.223511,4542.965332 1839.060425,4569.684082 1916.526489,4591.816406 
	C1981.714966,4610.441895 2047.677368,4625.797852 2114.230225,4638.588867 
	C2140.896484,4643.714355 2167.737549,4647.985840 2194.580566,4652.115723 
	C2210.277100,4654.530273 2226.135498,4655.894531 2241.920654,4657.735352 
	C2262.325928,4660.115234 2282.729004,4662.512207 2303.135986,4664.877930 
	C2318.303955,4666.637207 2333.412842,4668.352051 2348.768799,4668.738770 
	C2367.274902,4669.204590 2385.687500,4672.892090 2404.202148,4673.619629 
	C2431.435059,4674.689941 2458.724365,4674.715820 2485.986084,4674.563965 
	C2519.925537,4674.374023 2553.923096,4672.073730 2587.779053,4673.481934 
	C2613.234863,4674.540527 2638.162109,4669.881348 2663.452148,4670.389648 
	C2674.652588,4670.615234 2685.939697,4669.137207 2697.109375,4667.787598 
	C2724.710693,4664.452637 2752.176758,4659.477051 2779.863770,4657.502930 
	C2815.676758,4654.950684 2850.728271,4647.801758 2885.980957,4642.105469 
	C2918.663818,4636.824707 2950.839844,4628.422852 2983.258789,4621.487305 
	C3067.236816,4603.520508 3149.423340,4579.166504 3230.185059,4550.244141 
	C3320.470947,4517.910645 3408.463623,4480.113281 3493.640381,4435.827148 
	C3602.024902,4379.474121 3705.538086,4315.445801 3802.892578,4241.589355 
	C3846.931152,4208.180176 3890.156250,4173.746582 3931.163086,4136.636719 
	C3952.895752,4116.969238 3974.230713,4096.862793 3999.006348,4077.076904 
	C4020.277832,4076.532715 4041.548340,4075.549072 4062.820557,4075.517822 
	C4168.626953,4075.361816 4274.433105,4075.460449 4380.239258,4075.455322 
	C4386.227051,4075.455078 4392.233887,4075.614746 4398.197754,4075.201904 
	C4408.056152,4074.519287 4410.639160,4071.791016 4411.231445,4061.405518 
	C4411.609375,4054.770508 4411.437500,4048.101807 4411.437988,4041.448242 
	C4411.442871,3883.071533 4411.477539,3724.694580 4411.374512,3566.317871 
	C4411.363770,3550.342529 4411.643066,3534.449707 4415.914551,3516.210693 
z"/>
<path fill="#91BE6D" opacity="1.000000" stroke="none" 
	d="
M3995.745117,4076.954102 
	C3974.230713,4096.862793 3952.895752,4116.969238 3931.163086,4136.636719 
	C3890.156250,4173.746582 3846.931152,4208.180176 3802.892578,4241.589355 
	C3705.538086,4315.445801 3602.024902,4379.474121 3493.640381,4435.827148 
	C3408.463623,4480.113281 3320.470947,4517.910645 3230.185059,4550.244141 
	C3149.423340,4579.166504 3067.236816,4603.520508 2983.258789,4621.487305 
	C2950.839844,4628.422852 2918.663818,4636.824707 2885.980957,4642.105469 
	C2850.728271,4647.801758 2815.676758,4654.950684 2779.863770,4657.502930 
	C2752.176758,4659.477051 2724.710693,4664.452637 2697.109375,4667.787598 
	C2685.939697,4669.137207 2674.652588,4670.615234 2663.452148,4670.389648 
	C2638.162109,4669.881348 2613.234863,4674.540527 2587.779053,4673.481934 
	C2553.923096,4672.073730 2519.925537,4674.374023 2485.986084,4674.563965 
	C2458.724365,4674.715820 2431.435059,4674.689941 2404.202148,4673.619629 
	C2385.687500,4672.892090 2367.274902,4669.204590 2348.768799,4668.738770 
	C2333.412842,4668.352051 2318.303955,4666.637207 2303.135986,4664.877930 
	C2282.729004,4662.512207 2262.325928,4660.115234 2241.920654,4657.735352 
	C2226.135498,4655.894531 2210.277100,4654.530273 2194.580566,4652.115723 
	C2167.737549,4647.985840 2140.896484,4643.714355 2114.230225,4638.588867 
	C2047.677368,4625.797852 1981.714966,4610.441895 1916.526489,4591.816406 
	C1839.060425,4569.684082 1763.223511,4542.965332 1688.718750,4512.316895 
	C1604.871948,4477.825195 1523.677124,4437.981445 1444.854614,4393.235840 
	C1373.536011,4352.749512 1304.602417,4308.567871 1238.567993,4259.918457 
	C1174.720337,4212.880371 1113.031128,4163.200684 1055.110474,4108.952637 
	C1045.386841,4099.845215 1035.731812,4090.664795 1025.326904,4079.239746 
	C1026.752930,4075.674072 1028.805908,4073.502197 1031.058838,4073.269531 
	C1037.002319,4072.656250 1043.032715,4072.792969 1049.028442,4072.791016 
	C1121.020264,4072.769043 1193.011963,4072.814453 1265.003662,4072.721191 
	C1272.823730,4072.710938 1280.894043,4073.883789 1289.697632,4070.000244 
	C1303.469116,4024.348633 1317.353271,3978.508789 1331.120605,3932.633789 
	C1344.910645,3886.683105 1358.560669,3840.690186 1372.315186,3794.728760 
	C1386.260864,3748.127930 1400.179321,3701.518555 1414.257568,3654.957520 
	C1428.114868,3609.126953 1441.003906,3562.989746 1456.322510,3516.458984 
	C1465.875244,3516.305420 1474.439209,3516.048096 1483.003296,3516.047607 
	C1809.632690,3516.027100 2136.262207,3516.030273 2462.891602,3516.031494 
	C2466.891113,3516.031494 2470.902832,3515.854248 2474.886963,3516.106201 
	C2479.399658,3516.391846 2483.887451,3517.069092 2489.467773,3517.697998 
	C2493.012207,3528.943604 2496.525391,3539.621094 2499.748535,3550.385254 
	C2549.253906,3715.714355 2598.712158,3881.057617 2648.226562,4046.384277 
	C2650.693359,4054.620361 2653.569092,4062.734131 2656.025146,4070.207764 
	C2665.645752,4074.101074 2674.407715,4072.711426 2682.968750,4072.714111 
	C2922.274658,4072.791504 3161.580811,4072.776123 3400.886719,4072.773438 
	C3405.552734,4072.773193 3410.239990,4072.999512 3414.877930,4072.627441 
	C3418.548584,4072.333008 3422.158203,4071.280762 3426.734619,4070.380127 
	C3425.659912,4065.887451 3425.158203,4062.635254 3424.109619,4059.570068 
	C3072.506592,3031.887207 2720.866455,2004.216919 2369.160156,976.569275 
	C2368.549072,974.783813 2366.941162,973.339417 2364.826904,970.370850 
	C2357.093018,970.177795 2348.525635,969.778320 2339.958496,969.777161 
	C2094.653076,969.743652 1849.347778,969.749817 1604.042480,969.752075 
	C1600.042969,969.752075 1596.024170,969.539490 1592.049194,969.859741 
	C1587.519897,970.224609 1583.029907,971.076721 1577.625732,971.844543 
	C1574.380249,980.903625 1571.146973,989.583252 1568.150269,998.343872 
	C1467.863037,1291.524292 1367.612793,1584.717285 1267.327515,1877.898315 
	C1084.872314,2411.299316 902.397217,2944.693604 719.933716,3478.091553 
	C704.836731,3522.225342 689.873779,3566.405273 674.563049,3610.464600 
	C672.259521,3617.093750 671.935974,3625.321533 663.744263,3628.610596 
	C597.495483,3521.096680 543.275208,3407.690430 498.285492,3289.811523 
	C470.523041,3217.070557 446.244904,3143.166992 427.238373,3067.629150 
	C416.867371,3026.412109 406.725464,2985.110352 397.843536,2943.555176 
	C391.753815,2915.063965 387.847565,2886.096680 383.270752,2857.293701 
	C379.415466,2833.031250 375.589691,2808.750732 372.519928,2784.381104 
	C370.036316,2764.664795 368.801056,2744.793701 366.819000,2725.010498 
	C365.167297,2708.524414 362.962097,2692.090820 361.505432,2675.589355 
	C360.101898,2659.689941 358.723907,2643.745850 358.419586,2627.800781 
	C357.569214,2583.245605 356.172333,2538.654297 357.207916,2494.128906 
	C357.779907,2469.534668 357.772400,2444.918213 358.658783,2420.364258 
	C359.734558,2390.564453 363.449585,2360.857178 366.119965,2331.118896 
	C367.839905,2311.965088 369.448151,2292.794189 371.624786,2273.690186 
	C374.255798,2250.598145 377.022400,2227.506104 380.494110,2204.529541 
	C383.858765,2182.261230 388.273804,2160.153076 392.083282,2137.949707 
	C401.072723,2085.555420 412.896362,2033.810547 426.430481,1982.403442 
	C438.955658,1934.828979 452.577759,1887.633789 468.293884,1840.996094 
	C494.471252,1763.314819 524.926208,1687.408569 559.529968,1613.105713 
	C602.060974,1521.781006 651.012329,1434.058228 705.841064,1349.583252 
	C749.765076,1281.909180 797.434204,1216.927002 848.922852,1154.865356 
	C877.399109,1120.541626 907.804260,1087.810547 937.553772,1054.552734 
	C973.128174,1014.783020 1011.298523,977.536926 1050.729370,941.674866 
	C1082.743652,912.558105 1115.761353,884.509338 1148.982544,856.763184 
	C1196.035645,817.464722 1245.421997,781.203186 1296.008667,746.577454 
	C1349.911499,709.681946 1405.246704,675.070312 1462.698486,643.994690 
	C1503.099487,622.141785 1543.680176,600.527222 1584.984863,580.461792 
	C1641.894897,552.815369 1700.424927,528.808655 1759.724121,506.672211 
	C1837.073975,477.797668 1915.938965,453.738647 1996.025879,434.011505 
	C2068.181885,416.237915 2141.066895,401.681335 2214.931152,392.547913 
	C2242.523926,389.135986 2270.013916,384.899384 2297.592285,381.362305 
	C2305.461670,380.353027 2313.476562,380.477997 2321.424805,380.084808 
	C2356.474365,378.350891 2391.443604,375.310455 2426.467773,373.160553 
	C2473.125000,370.296570 2519.711426,372.622467 2566.317383,371.696472 
	C2588.797363,371.249786 2611.346191,374.194336 2633.860840,375.652252 
	C2637.175049,375.866882 2640.463379,376.490448 2643.777832,376.692108 
	C2668.885010,378.219727 2694.208984,378.123383 2719.059814,381.509857 
	C2767.608398,388.125763 2816.420654,392.867706 2864.682617,401.644501 
	C2912.320557,410.307739 2959.702148,420.004150 3006.858643,431.091217 
	C3107.357666,454.719849 3205.398682,485.800690 3301.396729,523.712341 
	C3411.277588,567.106628 3516.611328,619.613098 3617.909912,680.236938 
	C3707.785156,734.024048 3793.142578,794.399719 3873.826416,861.126587 
	C3912.809570,893.366272 3949.712158,928.121765 3987.571289,964.133118 
	C3981.008301,971.151428 3973.440430,969.638977 3966.246582,969.671021 
	C3929.583252,969.834290 3892.918701,969.748901 3856.254639,969.750122 
	C3805.591553,969.751770 3754.928223,969.682861 3704.265625,969.834412 
	C3697.115967,969.855835 3689.529053,968.187500 3682.439453,973.467712 
	C3682.008545,975.567810 3681.028320,978.114502 3681.028564,980.661133 
	C3681.041504,2008.583862 3681.119385,3036.506592 3681.278320,4064.429199 
	C3681.278564,4066.269043 3682.487549,4068.109131 3683.264404,4070.326904 
	C3690.069336,4074.001465 3697.519531,4072.694336 3704.666748,4072.708984 
	C3761.995850,4072.826416 3819.324951,4072.774658 3876.654297,4072.776611 
	C3909.318604,4072.777588 3941.982910,4072.746094 3974.647217,4072.813477 
	C3981.914062,4072.828369 3989.436279,4071.901611 3995.745117,4076.954102 
z"/>
<path fill="#37371F" opacity="1.000000" stroke="none" 
	d="
M663.350708,3629.998535 
	C671.935974,3625.321533 672.259521,3617.093750 674.563049,3610.464600 
	C689.873779,3566.405273 704.836731,3522.225342 719.933716,3478.091553 
	C902.397217,2944.693604 1084.872314,2411.299316 1267.327515,1877.898315 
	C1367.612793,1584.717285 1467.863037,1291.524292 1568.150269,998.343872 
	C1571.146973,989.583252 1574.380249,980.903625 1577.625732,971.844543 
	C1583.029907,971.076721 1587.519897,970.224609 1592.049194,969.859741 
	C1596.024170,969.539490 1600.042969,969.752075 1604.042480,969.752075 
	C1849.347778,969.749817 2094.653076,969.743652 2339.958496,969.777161 
	C2348.525635,969.778320 2357.093018,970.177795 2364.826904,970.370850 
	C2366.941162,973.339417 2368.549072,974.783813 2369.160156,976.569275 
	C2720.866455,2004.216919 3072.506592,3031.887207 3424.109619,4059.570068 
	C3425.158203,4062.635254 3425.659912,4065.887451 3426.734619,4070.380127 
	C3422.158203,4071.280762 3418.548584,4072.333008 3414.877930,4072.627441 
	C3410.239990,4072.999512 3405.552734,4072.773193 3400.886719,4072.773438 
	C3161.580811,4072.776123 2922.274658,4072.791504 2682.968750,4072.714111 
	C2674.407715,4072.711426 2665.645752,4074.101074 2656.025146,4070.207764 
	C2653.569092,4062.734131 2650.693359,4054.620361 2648.226562,4046.384277 
	C2598.712158,3881.057617 2549.253906,3715.714355 2499.748535,3550.385254 
	C2496.525391,3539.621094 2493.012207,3528.943604 2489.467773,3517.697998 
	C2483.887451,3517.069092 2479.399658,3516.391846 2474.886963,3516.106201 
	C2470.902832,3515.854248 2466.891113,3516.031494 2462.891602,3516.031494 
	C2136.262207,3516.030273 1809.632690,3516.027100 1483.003296,3516.047607 
	C1474.439209,3516.048096 1465.875244,3516.305420 1456.322510,3516.458984 
	C1441.003906,3562.989746 1428.114868,3609.126953 1414.257568,3654.957520 
	C1400.179321,3701.518555 1386.260864,3748.127930 1372.315186,3794.728760 
	C1358.560669,3840.690186 1344.910645,3886.683105 1331.120605,3932.633789 
	C1317.353271,3978.508789 1303.469116,4024.348633 1289.697632,4070.000244 
	C1280.894043,4073.883789 1272.823730,4072.710938 1265.003662,4072.721191 
	C1193.011963,4072.814453 1121.020264,4072.769043 1049.028442,4072.791016 
	C1043.032715,4072.792969 1037.002319,4072.656250 1031.058838,4073.269531 
	C1028.805908,4073.502197 1026.752930,4075.674072 1024.197144,4078.529785 
	C978.095215,4075.033447 932.218872,4075.418457 886.356445,4075.417480 
	C771.203491,4075.415039 656.050537,4075.463867 540.897766,4075.339355 
	C532.520020,4075.330322 523.621521,4077.322266 515.754089,4071.781250 
	C514.381897,4065.309814 516.659607,4059.811523 518.630859,4054.224854 
	C529.914307,4022.248535 541.377319,3990.333252 552.333374,3958.244873 
	C563.076233,3926.780518 573.296753,3895.137939 583.709412,3863.561279 
	C584.540344,3861.041016 584.914368,3858.367676 585.781799,3855.862793 
	C608.194214,3791.147461 630.668823,3726.453613 653.060608,3661.731445 
	C656.538574,3651.678467 659.667114,3641.504639 663.350708,3629.998535 
M1993.335327,1848.598511 
	C1987.128418,1828.318359 1982.319946,1807.587769 1974.511353,1787.580933 
	C1972.751099,1788.762329 1970.983154,1789.278198 1970.701294,1790.232910 
	C1864.329712,2150.460938 1758.055542,2510.717529 1651.849121,2870.994141 
	C1650.766846,2874.665283 1650.605347,2878.607666 1649.989746,2882.580566 
	C1659.043213,2886.540527 1667.809082,2885.056885 1676.329590,2885.060547 
	C1873.547241,2885.144531 2070.764893,2885.125977 2267.982422,2885.121582 
	C2273.312500,2885.121338 2278.665283,2885.353516 2283.964600,2884.934082 
	C2287.639648,2884.643311 2291.240723,2883.418457 2296.276855,2882.299072 
	C2293.858643,2873.433350 2291.906006,2865.780029 2289.684814,2858.205566 
	C2252.391357,2731.022461 2215.060791,2603.850586 2177.745850,2476.674072 
	C2116.616943,2268.333740 2055.493164,2059.991699 1993.335327,1848.598511 
z"/>
<path fill="#37371F" opacity="1.000000" stroke="none" 
	d="
M3997.375732,4077.015625 
	C3989.436279,4071.901611 3981.914062,4072.828369 3974.647217,4072.813477 
	C3941.982910,4072.746094 3909.318604,4072.777588 3876.654297,4072.776611 
	C3819.324951,4072.774658 3761.995850,4072.826416 3704.666748,4072.708984 
	C3697.519531,4072.694336 3690.069336,4074.001465 3683.264404,4070.326904 
	C3682.487549,4068.109131 3681.278564,4066.269043 3681.278320,4064.429199 
	C3681.119385,3036.506592 3681.041504,2008.583862 3681.028564,980.661133 
	C3681.028320,978.114502 3682.008545,975.567810 3682.439453,973.467712 
	C3689.529053,968.187500 3697.115967,969.855835 3704.265625,969.834412 
	C3754.928223,969.682861 3805.591553,969.751770 3856.254639,969.750122 
	C3892.918701,969.748901 3929.583252,969.834290 3966.246582,969.671021 
	C3973.440430,969.638977 3981.008301,971.151428 3988.663086,964.982422 
	C3999.814209,967.744629 4010.444580,967.719604 4021.135498,967.716248 
	C4141.096191,967.678711 4261.056641,967.712769 4381.017090,967.731995 
	C4386.348145,967.732849 4391.691895,967.552979 4397.008301,967.844177 
	C4408.193359,968.456604 4410.512207,970.830383 4411.231934,982.612732 
	C4411.597168,988.590942 4411.437500,994.603943 4411.438477,1000.601196 
	C4411.456543,1163.880981 4411.452637,1327.160767 4411.503906,1490.440552 
	C4411.507324,1500.431030 4411.941406,1510.421387 4411.226562,1523.716431 
	C4409.735840,1536.278564 4408.722656,1545.536011 4408.720703,1554.793579 
	C4408.640625,1929.955566 4408.651855,2305.117432 4408.652344,2680.279541 
	C4408.652344,2950.822754 4408.648438,3221.365723 4408.676270,3491.908936 
	C4408.677246,3499.224854 4408.668457,3506.580566 4409.466309,3513.829102 
	C4409.665527,3515.642578 4412.983398,3517.112793 4414.868164,3518.740723 
	C4411.643066,3534.449707 4411.363770,3550.342529 4411.374512,3566.317871 
	C4411.477539,3724.694580 4411.442871,3883.071533 4411.437988,4041.448242 
	C4411.437500,4048.101807 4411.609375,4054.770508 4411.231445,4061.405518 
	C4410.639160,4071.791016 4408.056152,4074.519287 4398.197754,4075.201904 
	C4392.233887,4075.614746 4386.227051,4075.455078 4380.239258,4075.455322 
	C4274.433105,4075.460449 4168.626953,4075.361816 4062.820557,4075.517822 
	C4041.548340,4075.549072 4020.277832,4076.532715 3997.375732,4077.015625 
z"/>
<path fill="#90BC6C" opacity="1.000000" stroke="none" 
	d="
M4415.391602,3517.475586 
	C4412.983398,3517.112793 4409.665527,3515.642578 4409.466309,3513.829102 
	C4408.668457,3506.580566 4408.677246,3499.224854 4408.676270,3491.908936 
	C4408.648438,3221.365723 4408.652344,2950.822754 4408.652344,2680.279541 
	C4408.651855,2305.117432 4408.640625,1929.955566 4408.720703,1554.793579 
	C4408.722656,1545.536011 4409.735840,1536.278564 4411.100586,1525.599365 
	C4427.244629,1554.474609 4443.050781,1584.537598 4457.791992,1615.114014 
	C4497.151855,1696.751099 4529.705078,1781.102783 4557.156738,1867.451294 
	C4571.653809,1913.051758 4584.850098,1959.006470 4596.357910,2005.464111 
	C4609.433105,2058.249023 4620.942871,2111.331787 4629.169434,2165.104736 
	C4634.382812,2199.176758 4640.347168,2233.148682 4644.788574,2267.319824 
	C4648.204102,2293.597900 4649.815430,2320.112549 4652.141602,2346.529785 
	C4653.712402,2364.365234 4653.889648,2382.446777 4656.003906,2400.063721 
	C4660.945801,2441.231445 4657.539062,2482.442627 4659.478516,2523.592041 
	C4661.013184,2556.138428 4659.372070,2588.838623 4658.954102,2621.468018 
	C4658.895020,2626.052734 4657.743652,2630.620361 4657.146973,2635.202393 
	C4656.547852,2639.804443 4655.348145,2644.445068 4655.555176,2649.016846 
	C4656.793457,2676.385742 4651.590820,2703.331543 4650.054688,2730.520264 
	C4648.304199,2761.502441 4642.714844,2792.303223 4638.099609,2823.078369 
	C4632.395020,2861.117432 4626.543457,2899.152344 4619.670898,2936.992188 
	C4614.822754,2963.691406 4608.524902,2990.147705 4602.224121,3016.557617 
	C4595.596191,3044.337402 4588.637207,3072.054932 4581.043945,3099.584717 
	C4561.581055,3170.142334 4538.168945,3239.365234 4511.609375,3307.605469 
	C4483.797363,3379.063232 4451.047363,3448.160400 4415.391602,3517.475586 
z"/>
<path fill="#91BD6D" opacity="1.000000" stroke="none" 
	d="
M1993.851318,1850.124512 
	C2055.493164,2059.991699 2116.616943,2268.333740 2177.745850,2476.674072 
	C2215.060791,2603.850586 2252.391357,2731.022461 2289.684814,2858.205566 
	C2291.906006,2865.780029 2293.858643,2873.433350 2296.276855,2882.299072 
	C2291.240723,2883.418457 2287.639648,2884.643311 2283.964600,2884.934082 
	C2278.665283,2885.353516 2273.312500,2885.121338 2267.982422,2885.121582 
	C2070.764893,2885.125977 1873.547241,2885.144531 1676.329590,2885.060547 
	C1667.809082,2885.056885 1659.043213,2886.540527 1649.989746,2882.580566 
	C1650.605347,2878.607666 1650.766846,2874.665283 1651.849121,2870.994141 
	C1758.055542,2510.717529 1864.329712,2150.460938 1970.701294,1790.232910 
	C1970.983154,1789.278198 1972.751099,1788.762329 1974.511353,1787.580933 
	C1982.319946,1807.587769 1987.128418,1828.318359 1993.851318,1850.124512 
z"/>
</svg>